<svg xmlns="http://www.w3.org/2000/svg" viewBox="0 0 142 142"><defs><style>.cls-1{fill:#36a9e1;}.cls-2{fill:#fff;}</style></defs><g id="Layer_2" data-name="Layer 2"><g id="Layer_1-2" data-name="Layer 1"><rect class="cls-1" width="142" height="142" rx="6"/><path id="Path" d="M21,39.28H17.89a.65.65,0,0,1-.57-.2.72.72,0,0,1-.18-.58V21.1a.73.73,0,0,1,.18-.59.67.67,0,0,1,.57-.19H21a.63.63,0,0,1,.56.2.68.68,0,0,1,.19.58v1.17h.14a3.39,3.39,0,0,1,1.48-1.4,4.38,4.38,0,0,1,2.37-.55h1a4.89,4.89,0,0,1,4.51,2.36,4.42,4.42,0,0,1,4.22-2.36h1.06a5.57,5.57,0,0,1,4.2,1.55,6.53,6.53,0,0,1,1.43,4.51V38.5a.69.69,0,0,1-.19.58.65.65,0,0,1-.57.2H38.28a.63.63,0,0,1-.56-.2.69.69,0,0,1-.19-.58V26.6a2.31,2.31,0,0,0-.47-1.67,2.21,2.21,0,0,0-1.61-.52h-.92c-1.66,0-2.52.95-2.52,2.88V38.51a.7.7,0,0,1-.8.78h-3a.66.66,0,0,1-.59-.19.68.68,0,0,1-.18-.6V26.6c0-.76,0-1.25-.47-1.67a1.94,1.94,0,0,0-1.64-.5H24.19c-1.7,0-2.48.92-2.48,2.86V38.56a.72.72,0,0,1-.21.54A.68.68,0,0,1,21,39.28Z"/><path id="Shape" d="M69,39.29H65.9a.62.62,0,0,1-.57-.19.69.69,0,0,1-.19-.58V14.08a.69.69,0,0,1,.19-.58.67.67,0,0,1,.57-.19H69a.7.7,0,0,1,.58.19.69.69,0,0,1,.19.58V38.52a.69.69,0,0,1-.19.58C69.42,39.25,69.35,39.3,69,39.29Zm6.78-18.84h3.54a.58.58,0,0,1,.58.25.63.63,0,0,1-.1.67L75,29.46v.15L80,38.38A.57.57,0,0,1,80,39a.69.69,0,0,1-.66.27H76.09a1.39,1.39,0,0,1-.72-.14,1.58,1.58,0,0,1-.57-.63l-4.62-8.21a1.17,1.17,0,0,1,0-1.17l4.38-7.87A1.31,1.31,0,0,1,75.78,20.45Z"/><path id="Shape-2" data-name="Shape" d="M57.77,65.29H49.64a5.47,5.47,0,0,1-6-6.06V52.38a5.48,5.48,0,0,1,6-6.07h2.89A6,6,0,0,1,57,47.88a6.12,6.12,0,0,1,1.58,4.5v4.71a.71.71,0,0,1-.2.59.69.69,0,0,1-.58.19H48.66c-.3,0-.44.14-.44.41v.82a2.37,2.37,0,0,0,.48,1.66c.48.51.88.48,1.68.5h7.39c.51,0,.77.27.77.82v2.47a.79.79,0,0,1-.17.57.86.86,0,0,1-.6.17ZM53.64,54.68a.34.34,0,0,0,.29-.11.36.36,0,0,0,.1-.31V52.53a2,2,0,0,0-.47-1.68,2.33,2.33,0,0,0-1.65-.48H50.38a2.25,2.25,0,0,0-1.65.48,2,2,0,0,0-.48,1.68v1.78a.39.39,0,0,0,.1.31.36.36,0,0,0,.31.1Z"/><path id="Shape-3" data-name="Shape" d="M96.27,39.29H88.14a6,6,0,0,1-4.43-1.57,6.06,6.06,0,0,1-1.57-4.49V26.38a6.08,6.08,0,0,1,1.57-4.5,6.08,6.08,0,0,1,4.47-1.57h2.89a6,6,0,0,1,4.47,1.57,6.12,6.12,0,0,1,1.58,4.5v4.71a.71.71,0,0,1-.2.59.69.69,0,0,1-.58.19H87.16c-.3,0-.44.14-.44.41v.82a2.37,2.37,0,0,0,.48,1.66c.48.51.88.48,1.68.5h7.39c.51,0,.77.27.77.82v2.47a.79.79,0,0,1-.17.57.86.86,0,0,1-.6.17ZM92.14,28.68a.34.34,0,0,0,.29-.11.36.36,0,0,0,.1-.31V26.53a2,2,0,0,0-.47-1.68,2.33,2.33,0,0,0-1.65-.48H88.88a2.25,2.25,0,0,0-1.65.48,2,2,0,0,0-.48,1.68v1.78a.39.39,0,0,0,.1.31.36.36,0,0,0,.31.1Z"/><path id="Shape-4" data-name="Shape" d="M69,65.29h-.9a5.88,5.88,0,0,1-4.37-1.57,6.16,6.16,0,0,1-1.54-4.49V52.37a6.17,6.17,0,0,1,1.54-4.49,5.88,5.88,0,0,1,4.37-1.57h8.29a.69.69,0,0,1,.78.78V64.5a.71.71,0,0,1-.2.6.69.69,0,0,1-.58.19h-3a.66.66,0,0,1-.56-.2.72.72,0,0,1-.19-.59V63.32h-.15a2.76,2.76,0,0,1-1.39,1.46,4.6,4.6,0,0,1-2.12.51Zm3.65-6.92V50.82a.38.38,0,0,0-.43-.41H68.76a1.83,1.83,0,0,0-1.62.5,2.47,2.47,0,0,0-.46,1.69V59a2.16,2.16,0,0,0,.46,1.69,2.56,2.56,0,0,0,1.62.51h1.33C71.78,61.24,72.6,60.25,72.6,58.37Z"/><path id="Shape-5" data-name="Shape" d="M53,39.29h-.9a5.88,5.88,0,0,1-4.37-1.57,6.16,6.16,0,0,1-1.54-4.49V26.37a6.17,6.17,0,0,1,1.54-4.49,5.88,5.88,0,0,1,4.37-1.57h8.29a.69.69,0,0,1,.78.78V38.5a.71.71,0,0,1-.2.6.69.69,0,0,1-.58.19h-3a.66.66,0,0,1-.56-.2.72.72,0,0,1-.19-.59V37.32h-.15a2.76,2.76,0,0,1-1.39,1.46,4.6,4.6,0,0,1-2.12.51Zm3.65-6.92V24.82a.38.38,0,0,0-.43-.41H52.76a1.83,1.83,0,0,0-1.62.5,2.47,2.47,0,0,0-.46,1.69V33a2.16,2.16,0,0,0,.46,1.69,2.56,2.56,0,0,0,1.62.51h1.33C55.78,35.24,56.6,34.25,56.6,32.37Z"/><path id="Path-2" data-name="Path" d="M87.61,65.3H80.92c-.47,0-.7-.26-.7-.79V62.14a.88.88,0,0,1,.13-.57.71.71,0,0,1,.57-.17h5.86c1.12,0,1.73-.38,1.73-1.12v-.22c0-.59-.48-1.18-1.44-1.71l-3.44-2A8,8,0,0,1,81,54.22a4.65,4.65,0,0,1-.85-2.87,5.33,5.33,0,0,1,1.25-3.84c1-1,1.83-1.21,4.08-1.18h6c.47,0,.7.26.7.78v2.42a.9.9,0,0,1-.14.58c-.09.12-.28.17-.56.17h-5c-1.11,0-1.73.31-1.73.93v.19c0,.54.52,1.11,1.52,1.68l3.56,2.23a7.56,7.56,0,0,1,2.56,2.15,5.12,5.12,0,0,1,.73,2.89C93.12,63.65,91.29,65.3,87.61,65.3Z"/><path id="Path-3" data-name="Path" d="M98.56,71.29H96.24c-.49,0-.73-.27-.73-.82v-2.4c0-.54.24-.81.73-.81H97c1.53,0,2,.16,2.19-.47a8.75,8.75,0,0,0-.38-2.22l-4.65-17.5c-.13-.51,0-.77.56-.77H98a.88.88,0,0,1,.92.77l3.24,13.58h.15l3.08-13.58a.85.85,0,0,1,.92-.77h3.07c.62,0,.87.27.74.81l-4.48,18a9.45,9.45,0,0,1-2.48,4.67,6.44,6.44,0,0,1-4.58,1.55Z"/><path id="Rectangle" class="cls-2" d="M17.51,46.3h4.32l.07,0,.06,0,.06,0,.05.06,0,.06a.24.24,0,0,1,0,.08.15.15,0,0,1,0,.07V64.92a.22.22,0,0,1,0,.08.25.25,0,0,1,0,.07l0,.06-.05.06-.06,0-.06,0-.07,0H17.44l-.08,0-.06,0-.06,0,0-.06,0-.06a.25.25,0,0,1,0-.07.22.22,0,0,1,0-.08V46.68a.15.15,0,0,1,0-.07.24.24,0,0,1,0-.08l0-.06,0-.06.06,0,.06,0,.08,0Z"/><path id="Path-4" data-name="Path" class="cls-2" d="M31.11,65.3a.44.44,0,0,1-.43-.45V51.9c0-.66-.12-.8-.75-.8H25.57a.44.44,0,0,1-.44-.44v-3.9a.45.45,0,0,1,.44-.46H40.69a.45.45,0,0,1,.44.46v3.91a.45.45,0,0,1-.44.45H36.34c-.63,0-.75.13-.75.79V64.85a.44.44,0,0,1-.43.45Z"/><path class="cls-2" d="M101.13,102.18h0l-20.94,21a4,4,0,1,0,5.71,5.68l16.33-16.32a2.52,2.52,0,0,1,1.61-.73,2.09,2.09,0,0,1,1.4.64l16.83,16.41a4,4,0,1,0,5.7-5.68l-20.93-21h0A4,4,0,0,0,101.13,102.18Z"/></g></g></svg>